<mxfile host="65bd71144e">
    <diagram id="6a731a19-8d31-9384-78a2-239565b7b9f0" name="Page-1">
        <mxGraphModel dx="2272" dy="591" grid="1" gridSize="10" guides="1" tooltips="1" connect="1" arrows="1" fold="1" page="1" pageScale="1" pageWidth="1169" pageHeight="827" background="none" math="0" shadow="0">
            <root>
                <mxCell id="0"/>
                <mxCell id="1" parent="0"/>
                <mxCell id="56" value="Unit Conversion Application" style="strokeColor=#BAC8D3;fillColor=#23445D;fontSize=24;strokeWidth=2;fontFamily=Helvetica;html=1;fontColor=#FFFFFF;fontStyle=0;spacingBottom=8;spacingRight=0;spacingLeft=83;" parent="1" vertex="1">
                    <mxGeometry x="154" y="827" width="2030" height="80" as="geometry"/>
                </mxCell>
                <mxCell id="57" value="User" style="strokeColor=#BAC8D3;fillColor=#23445D;fontSize=24;strokeWidth=2;horizontal=0;fontFamily=Helvetica;html=1;fontColor=#FFFFFF;fontStyle=0" parent="1" vertex="1">
                    <mxGeometry x="154" y="930.5" width="50" height="300" as="geometry"/>
                </mxCell>
                <mxCell id="58" value="" style="strokeColor=#BAC8D3;fillColor=#5d7f99;fontSize=19;strokeWidth=2;horizontal=0;fontFamily=Helvetica;html=1;labelBackgroundColor=none;fontColor=#FFFFFF;" parent="1" vertex="1">
                    <mxGeometry x="204" y="930.5" width="40" height="100" as="geometry"/>
                </mxCell>
                <mxCell id="59" value="v 1.0" style="strokeColor=#BAC8D3;fillColor=#5d7f99;fontSize=19;strokeWidth=2;fontFamily=Helvetica;html=1;labelBackgroundColor=none;fontColor=#FFFFFF;" parent="1" vertex="1">
                    <mxGeometry x="154" y="850.5" width="90" height="80" as="geometry"/>
                </mxCell>
                <mxCell id="60" value="" style="strokeColor=#BAC8D3;fillColor=#5d7f99;fontSize=19;strokeWidth=2;horizontal=0;fontFamily=Helvetica;html=1;labelBackgroundColor=none;fontColor=#FFFFFF;" parent="1" vertex="1">
                    <mxGeometry x="204" y="1030.5" width="40" height="100" as="geometry"/>
                </mxCell>
                <mxCell id="61" value="" style="strokeColor=#BAC8D3;fillColor=#5d7f99;fontSize=19;strokeWidth=2;horizontal=0;fontFamily=Helvetica;html=1;labelBackgroundColor=none;fontColor=#FFFFFF;" parent="1" vertex="1">
                    <mxGeometry x="204" y="1130.5" width="40" height="100" as="geometry"/>
                </mxCell>
                <mxCell id="62" value="" style="strokeColor=#BAC8D3;fillColor=#5d7f99;fontSize=19;strokeWidth=2;horizontal=0;fontFamily=Helvetica;html=1;labelBackgroundColor=none;fontColor=#FFFFFF;" parent="1" vertex="1">
                    <mxGeometry x="204" y="1330.5" width="40" height="100" as="geometry"/>
                </mxCell>
                <mxCell id="63" value="" style="strokeColor=#BAC8D3;fillColor=#5d7f99;fontSize=19;strokeWidth=2;horizontal=0;fontFamily=Helvetica;html=1;labelBackgroundColor=none;fontColor=#FFFFFF;" parent="1" vertex="1">
                    <mxGeometry x="204" y="1230.5" width="40" height="100" as="geometry"/>
                </mxCell>
                <mxCell id="64" value="HTML (Front-End)" style="strokeColor=#BAC8D3;fillColor=#23445D;fontSize=24;strokeWidth=2;horizontal=0;fontFamily=Helvetica;html=1;fontColor=#FFFFFF;fontStyle=0" parent="1" vertex="1">
                    <mxGeometry x="154" y="1230.5" width="50" height="200" as="geometry"/>
                </mxCell>
                <mxCell id="65" value="" style="strokeColor=#BAC8D3;fillColor=#5d7f99;fontSize=19;strokeWidth=2;horizontal=0;fontFamily=Helvetica;html=1;labelBackgroundColor=none;fontColor=#FFFFFF;" parent="1" vertex="1">
                    <mxGeometry x="204" y="1530.5" width="40" height="100" as="geometry"/>
                </mxCell>
                <mxCell id="66" value="" style="strokeColor=#BAC8D3;fillColor=#5d7f99;fontSize=19;strokeWidth=2;horizontal=0;fontFamily=Helvetica;html=1;labelBackgroundColor=none;fontColor=#FFFFFF;" parent="1" vertex="1">
                    <mxGeometry x="204" y="1430.5" width="40" height="100" as="geometry"/>
                </mxCell>
                <mxCell id="67" value="Flask (backend)" style="strokeColor=#BAC8D3;fillColor=#23445D;fontSize=24;strokeWidth=2;horizontal=0;fontFamily=Helvetica;html=1;fontColor=#FFFFFF;fontStyle=0" parent="1" vertex="1">
                    <mxGeometry x="154" y="1430.5" width="50" height="200" as="geometry"/>
                </mxCell>
                <mxCell id="68" value="" style="strokeColor=#FFFFFF;fillColor=#BAC8D3;fontSize=18;strokeWidth=2;fontFamily=Helvetica;html=1;opacity=60;" parent="1" vertex="1">
                    <mxGeometry x="243.99" y="930.5" width="646.6666666666666" height="100" as="geometry"/>
                </mxCell>
                <mxCell id="69" value="" style="strokeColor=#FFFFFF;fillColor=#BAC8D3;fontSize=18;strokeWidth=2;fontFamily=Helvetica;html=1;opacity=90;" parent="1" vertex="1">
                    <mxGeometry x="244" y="1030.5" width="646.6666666666666" height="100" as="geometry"/>
                </mxCell>
                <mxCell id="70" value="" style="strokeColor=#FFFFFF;fillColor=#BAC8D3;fontSize=18;strokeWidth=2;fontFamily=Helvetica;html=1;opacity=60;" parent="1" vertex="1">
                    <mxGeometry x="244" y="1130.5" width="646.6666666666666" height="100" as="geometry"/>
                </mxCell>
                <mxCell id="71" value="" style="strokeColor=#FFFFFF;fillColor=#BAC8D3;fontSize=18;strokeWidth=2;fontFamily=Helvetica;html=1;opacity=90;" parent="1" vertex="1">
                    <mxGeometry x="244" y="1230.5" width="646.6666666666666" height="100" as="geometry"/>
                </mxCell>
                <mxCell id="72" value="" style="strokeColor=#FFFFFF;fillColor=#BAC8D3;fontSize=18;strokeWidth=2;fontFamily=Helvetica;html=1;opacity=60;" parent="1" vertex="1">
                    <mxGeometry x="244" y="1330.5" width="646.6666666666666" height="100" as="geometry"/>
                </mxCell>
                <mxCell id="73" value="" style="strokeColor=#FFFFFF;fillColor=#BAC8D3;fontSize=18;strokeWidth=2;fontFamily=Helvetica;html=1;opacity=90;" parent="1" vertex="1">
                    <mxGeometry x="244" y="1430.5" width="646.6666666666666" height="100" as="geometry"/>
                </mxCell>
                <mxCell id="74" value="" style="strokeColor=#FFFFFF;fillColor=#BAC8D3;fontSize=18;strokeWidth=2;fontFamily=Helvetica;html=1;opacity=60;" parent="1" vertex="1">
                    <mxGeometry x="244" y="1530.5" width="646.6666666666666" height="100" as="geometry"/>
                </mxCell>
                <mxCell id="75" value="" style="strokeColor=#FFFFFF;fillColor=#BAC8D3;fontSize=18;strokeWidth=2;fontFamily=Helvetica;html=1;opacity=60;" parent="1" vertex="1">
                    <mxGeometry x="890.6666666666666" y="930.5" width="647" height="100" as="geometry"/>
                </mxCell>
                <mxCell id="82" value="" style="strokeColor=#FFFFFF;fillColor=#BAC8D3;fontSize=18;strokeWidth=2;fontFamily=Helvetica;html=1;opacity=60;" parent="1" vertex="1">
                    <mxGeometry x="1537.3333333333333" y="930.5" width="647" height="100" as="geometry"/>
                </mxCell>
                <mxCell id="135" value="" style="edgeStyle=elbowEdgeStyle;elbow=horizontal;strokeWidth=3;strokeColor=#0C343D;fontFamily=Helvetica;html=1;" parent="1" edge="1">
                    <mxGeometry x="6.448979591836746" y="830.5" width="131.97278911564624" height="100" as="geometry">
                        <mxPoint x="1499.5714285714284" y="980.5" as="sourcePoint"/>
                        <mxPoint x="138.421768707483" y="830.5" as="targetPoint"/>
                    </mxGeometry>
                </mxCell>
                <mxCell id="136" value="" style="edgeStyle=elbowEdgeStyle;elbow=horizontal;strokeWidth=3;strokeColor=#0C343D;fontFamily=Helvetica;html=1;" parent="1" edge="1">
                    <mxGeometry x="6.448979591836746" y="830.5" width="131.97278911564624" height="100" as="geometry">
                        <mxPoint x="6.448979591836746" y="930.5" as="sourcePoint"/>
                        <mxPoint x="2029.2380952380954" y="1480.5" as="targetPoint"/>
                    </mxGeometry>
                </mxCell>
                <mxCell id="140" value="" style="group" parent="1" vertex="1" connectable="0">
                    <mxGeometry x="244" y="890.5" width="646.6666666666666" height="40" as="geometry"/>
                </mxCell>
                <mxCell id="141" value="" style="strokeColor=#BAC8D3;fillColor=#5d7f99;fontSize=19;strokeWidth=2;fontFamily=Helvetica;html=1;labelBackgroundColor=none;fontColor=#FFFFFF;" parent="140" vertex="1">
                    <mxGeometry width="646.6656362699642" height="40" as="geometry"/>
                </mxCell>
                <mxCell id="142" value="" style="strokeColor=#BAC8D3;fillColor=#5d7f99;fontSize=19;strokeWidth=2;fontFamily=Helvetica;html=1;labelBackgroundColor=none;fontColor=#FFFFFF;" parent="140" vertex="1">
                    <mxGeometry x="646.6656362699642" width="646.6656362699642" height="40" as="geometry"/>
                </mxCell>
                <mxCell id="143" value="" style="strokeColor=#BAC8D3;fillColor=#5d7f99;fontSize=19;strokeWidth=2;fontFamily=Helvetica;html=1;labelBackgroundColor=none;fontColor=#FFFFFF;" parent="140" vertex="1">
                    <mxGeometry x="1293.3312725399282" width="646.6666666666666" height="40" as="geometry"/>
                </mxCell>
                <mxCell id="1ksFLWMixbj2ag-YaGrr-144" value="" style="strokeColor=#FFFFFF;fillColor=#BAC8D3;fontSize=18;strokeWidth=2;fontFamily=Helvetica;html=1;opacity=90;" parent="1" vertex="1">
                    <mxGeometry x="891" y="1430.5" width="646.6666666666666" height="100" as="geometry"/>
                </mxCell>
                <mxCell id="1ksFLWMixbj2ag-YaGrr-145" value="" style="strokeColor=#FFFFFF;fillColor=#BAC8D3;fontSize=18;strokeWidth=2;fontFamily=Helvetica;html=1;opacity=90;" parent="1" vertex="1">
                    <mxGeometry x="1537.6699999999998" y="1430.5" width="646.6666666666666" height="100" as="geometry"/>
                </mxCell>
                <mxCell id="1ksFLWMixbj2ag-YaGrr-147" value="" style="strokeColor=#FFFFFF;fillColor=#BAC8D3;fontSize=18;strokeWidth=2;fontFamily=Helvetica;html=1;opacity=60;" parent="1" vertex="1">
                    <mxGeometry x="891" y="1330.5" width="646.6666666666666" height="100" as="geometry"/>
                </mxCell>
                <mxCell id="1ksFLWMixbj2ag-YaGrr-148" value="" style="strokeColor=#FFFFFF;fillColor=#BAC8D3;fontSize=18;strokeWidth=2;fontFamily=Helvetica;html=1;opacity=60;" parent="1" vertex="1">
                    <mxGeometry x="1540" y="1330.5" width="646.6666666666666" height="100" as="geometry"/>
                </mxCell>
                <mxCell id="1ksFLWMixbj2ag-YaGrr-149" value="" style="strokeColor=#FFFFFF;fillColor=#BAC8D3;fontSize=18;strokeWidth=2;fontFamily=Helvetica;html=1;opacity=90;" parent="1" vertex="1">
                    <mxGeometry x="890.66" y="1230.5" width="646.6666666666666" height="100" as="geometry"/>
                </mxCell>
                <mxCell id="1ksFLWMixbj2ag-YaGrr-150" value="" style="strokeColor=#FFFFFF;fillColor=#BAC8D3;fontSize=18;strokeWidth=2;fontFamily=Helvetica;html=1;opacity=90;" parent="1" vertex="1">
                    <mxGeometry x="1537.33" y="1230.5" width="646.6666666666666" height="100" as="geometry"/>
                </mxCell>
                <mxCell id="1ksFLWMixbj2ag-YaGrr-151" value="" style="strokeColor=#FFFFFF;fillColor=#BAC8D3;fontSize=18;strokeWidth=2;fontFamily=Helvetica;html=1;opacity=90;" parent="1" vertex="1">
                    <mxGeometry x="890.6600000000001" y="1030.5" width="646.6666666666666" height="100" as="geometry"/>
                </mxCell>
                <mxCell id="1ksFLWMixbj2ag-YaGrr-152" value="" style="strokeColor=#FFFFFF;fillColor=#BAC8D3;fontSize=18;strokeWidth=2;fontFamily=Helvetica;html=1;opacity=90;" parent="1" vertex="1">
                    <mxGeometry x="1537.3299999999997" y="1030.5" width="646.6666666666666" height="100" as="geometry"/>
                </mxCell>
                <mxCell id="1ksFLWMixbj2ag-YaGrr-153" value="" style="strokeColor=#FFFFFF;fillColor=#BAC8D3;fontSize=18;strokeWidth=2;fontFamily=Helvetica;html=1;opacity=60;" parent="1" vertex="1">
                    <mxGeometry x="890.6600000000001" y="1130.5" width="646.6666666666666" height="100" as="geometry"/>
                </mxCell>
                <mxCell id="1ksFLWMixbj2ag-YaGrr-154" value="" style="strokeColor=#FFFFFF;fillColor=#BAC8D3;fontSize=18;strokeWidth=2;fontFamily=Helvetica;html=1;opacity=60;" parent="1" vertex="1">
                    <mxGeometry x="1537.6699999999998" y="1130.5" width="646.6666666666666" height="100" as="geometry"/>
                </mxCell>
                <mxCell id="1ksFLWMixbj2ag-YaGrr-155" value="" style="strokeColor=#FFFFFF;fillColor=#BAC8D3;fontSize=18;strokeWidth=2;fontFamily=Helvetica;html=1;opacity=60;" parent="1" vertex="1">
                    <mxGeometry x="890.6600000000001" y="1530.5" width="646.6666666666666" height="100" as="geometry"/>
                </mxCell>
                <mxCell id="1ksFLWMixbj2ag-YaGrr-156" value="" style="strokeColor=#FFFFFF;fillColor=#BAC8D3;fontSize=18;strokeWidth=2;fontFamily=Helvetica;html=1;opacity=60;" parent="1" vertex="1">
                    <mxGeometry x="1537.6699999999998" y="1530.5" width="646.6666666666666" height="100" as="geometry"/>
                </mxCell>
                <mxCell id="146" value="" style="edgeStyle=none;html=1;" edge="1" parent="1" source="1ksFLWMixbj2ag-YaGrr-158" target="70">
                    <mxGeometry relative="1" as="geometry"/>
                </mxCell>
                <mxCell id="1ksFLWMixbj2ag-YaGrr-158" value="&lt;font style=&quot;font-size: 14px;&quot;&gt;User accesses web app.&lt;/font&gt;" style="ellipse;whiteSpace=wrap;html=1;fillColor=#33FFFF;" parent="1" vertex="1">
                    <mxGeometry x="280" y="940.5" width="120" height="80" as="geometry"/>
                </mxCell>
            </root>
        </mxGraphModel>
    </diagram>
</mxfile>